<?xml version="1.0" encoding="UTF-8"?>
<svg width="40pt" height="40pt" version="1.1" viewBox="0 0 1200 1200" xmlns="http://www.w3.org/2000/svg">
 <path d="m674.34 603.58 318.15-318.11c19.555-19.555 19.613-51.273 0.085937-70.797-19.664-19.664-51.23-19.488-70.805 0.085937l-318.15 318.11-318.15-318.11c-19.555-19.555-51.277-19.613-70.805-0.085937-19.664 19.66-19.488 51.223 0.085937 70.797l318.15 318.11-318.15 318.11c-19.555 19.551-19.613 51.27-0.085937 70.797 19.664 19.66 51.23 19.488 70.805-0.085937l318.15-318.11 318.15 318.11c19.555 19.551 51.277 19.613 70.805 0.085937 19.664-19.664 19.488-51.223-0.085937-70.797z" fill="#d6454f" fill-rule="evenodd"/>
</svg>
